<?xml version="1.0" encoding="UTF-8"?>
<svg version="1.1" xmlns="http://www.w3.org/2000/svg" width="829" height="222">
<path d="M0 0 C1.21692535 0.01188103 1.21692535 0.01188103 2.45843506 0.02400208 C3.37739563 0.03118759 4.2963562 0.03837311 5.24316406 0.04577637 C6.24716248 0.06026321 7.25116089 0.07475006 8.2855835 0.0896759 C9.31874695 0.1038002 10.3519104 0.1179245 11.41638184 0.13247681 C13.61566919 0.16569183 15.81491075 0.20206175 18.01409912 0.24128723 C21.3389986 0.29578984 24.66349951 0.32486156 27.9887085 0.35334778 C44.29305629 0.58317708 56.66422288 2.1727025 70.1449585 12.10920715 C70.87585693 12.64416809 71.60675537 13.17912903 72.35980225 13.7303009 C82.91643871 22.17966253 87.22805273 33.84416263 89.8949585 46.73420715 C91.09753458 62.96898424 88.43248636 78.47347127 77.8949585 91.42170715 C69.20872481 100.62338767 56.36027225 108.42465856 43.53799438 109.28390503 C40.57162979 109.33938268 37.61168997 109.33423683 34.6449585 109.30451965 C33.56867188 109.30168976 32.49238525 109.29885986 31.38348389 109.29594421 C27.9705255 109.28481446 24.55783659 109.2597231 21.1449585 109.23420715 C18.82074356 109.22416805 16.49652447 109.21504383 14.17230225 109.2068634 C8.49643019 109.18489875 2.8207136 109.15149341 -2.8550415 109.10920715 C-2.87837189 95.04503058 -2.89595495 80.980857 -2.90685368 66.91666508 C-2.91208321 60.38684482 -2.91918212 53.85703753 -2.93048096 47.32722473 C-2.94130735 41.03139556 -2.94731781 34.73557889 -2.94991875 28.43974113 C-2.95177345 26.03185771 -2.9553949 23.62397501 -2.96077156 21.21609688 C-2.9679787 17.85631429 -2.96903258 14.49658405 -2.96856689 11.13679504 C-2.97216217 10.13051056 -2.97575745 9.12422607 -2.97946167 8.08744812 C-2.97808701 7.17734482 -2.97671234 6.26724152 -2.97529602 5.32955933 C-2.97667871 4.13629831 -2.97667871 4.13629831 -2.97808933 2.91893101 C-2.80842783 0.42363726 -2.49583014 0.14693068 0 0 Z M26.1449585 25.10920715 C24.88311241 26.14785606 24.88311241 26.14785606 25.02470398 28.43136597 C25.02692459 29.45950912 25.0291452 30.48765228 25.03143311 31.54695129 C25.03150864 32.70807938 25.03158417 33.86920746 25.03166199 35.06552124 C25.03682327 36.32903915 25.04198456 37.59255707 25.04730225 38.8943634 C25.04871719 40.18031906 25.05013214 41.46627472 25.05158997 42.79119873 C25.05541432 46.21564158 25.06524388 49.64004224 25.07629395 53.06446838 C25.08650985 56.55658904 25.09108797 60.04871649 25.09613037 63.54084778 C25.10686623 70.39698494 25.12394165 77.25309402 25.1449585 84.10920715 C31.1728015 86.11848816 38.01923813 84.83982514 43.8324585 82.48420715 C51.18804331 78.79323269 56.80274796 74.05030398 59.5199585 66.11701965 C61.28922847 57.60240792 61.65587608 47.81239423 57.40667725 39.99983215 C53.25692664 33.78163 48.67257011 28.47184607 41.09588623 26.6040802 C38.98788985 26.27975421 36.89430975 26.04699511 34.7699585 25.85920715 C34.04679443 25.7818634 33.32363037 25.70451965 32.57855225 25.62483215 C29.36885361 25.25462033 29.36885361 25.25462033 26.1449585 25.10920715 Z " fill="#1C232B" transform="translate(466.85504150390625,53.89079284667969)"/>
<path d="M0 0 C1.21042969 -0.00128906 2.42085937 -0.00257812 3.66796875 -0.00390625 C4.94285156 -0.00003906 6.21773437 0.00382812 7.53125 0.0078125 C9.44357422 0.00201172 9.44357422 0.00201172 11.39453125 -0.00390625 C13.21017578 -0.00197266 13.21017578 -0.00197266 15.0625 0 C16.18205078 0.00112793 17.30160156 0.00225586 18.45507812 0.00341797 C21.03125 0.1328125 21.03125 0.1328125 22.03125 1.1328125 C22.11996273 4.16259054 22.1464435 7.16948272 22.12890625 10.19921875 C22.1274913 11.10784164 22.12607635 12.01646454 22.12461853 12.95262146 C22.11900193 15.86688471 22.10644665 18.78107231 22.09375 21.6953125 C22.08873714 23.66601452 22.08417386 25.63671774 22.08007812 27.60742188 C22.06987617 32.44927164 22.05030409 37.29095697 22.03125 42.1328125 C34.57125 42.4628125 47.11125 42.7928125 60.03125 43.1328125 C59.70125 37.5228125 59.37125 31.9128125 59.03125 26.1328125 C59.08605093 21.60924503 59.18374356 17.14413066 59.40625 12.6328125 C59.45007813 11.52550781 59.49390625 10.41820313 59.5390625 9.27734375 C59.89361125 1.27045125 59.89361125 1.27045125 61.03125 0.1328125 C62.94583282 0.03309464 64.86407317 0.00200661 66.78125 0 C67.9465625 -0.00128906 69.111875 -0.00257812 70.3125 -0.00390625 C71.5396875 -0.00003906 72.766875 0.00382812 74.03125 0.0078125 C75.87203125 0.00201172 75.87203125 0.00201172 77.75 -0.00390625 C79.49796875 -0.00197266 79.49796875 -0.00197266 81.28125 0 C82.35890625 0.00112793 83.4365625 0.00225586 84.546875 0.00341797 C87.03125 0.1328125 87.03125 0.1328125 88.03125 1.1328125 C88.1267193 2.53692567 88.15313529 3.94581059 88.15150452 5.35316467 C88.15356651 6.71831963 88.15356651 6.71831963 88.15567017 8.11105347 C88.15027725 9.62048019 88.15027725 9.62048019 88.14477539 11.16040039 C88.14492142 12.21393204 88.14506744 13.26746368 88.1452179 14.35292053 C88.14451826 17.8537905 88.13672348 21.35460802 88.12890625 24.85546875 C88.12704225 27.27542593 88.12561826 29.69538349 88.12461853 32.11534119 C88.12079192 38.49896274 88.11096041 44.88256171 88.09991455 51.26617432 C88.08970351 57.77445164 88.08512157 64.2827326 88.08007812 70.79101562 C88.06933827 83.57162613 88.05174032 96.35221391 88.03125 109.1328125 C78.79125 109.1328125 69.55125 109.1328125 60.03125 109.1328125 C59.70125 94.6128125 59.37125 80.0928125 59.03125 65.1328125 C46.82125 65.1328125 34.61125 65.1328125 22.03125 65.1328125 C21.70125 79.6528125 21.37125 94.1728125 21.03125 109.1328125 C11.79125 109.1328125 2.55125 109.1328125 -6.96875 109.1328125 C-6.9912982 95.06863249 -7.00966345 81.00446438 -7.02056217 66.94027042 C-7.0257917 60.41045017 -7.03289061 53.88064287 -7.04418945 47.35083008 C-7.05501585 41.05500091 -7.06102631 34.75918424 -7.06362724 28.46334648 C-7.06548194 26.05546306 -7.0691034 23.64758036 -7.07448006 21.23970222 C-7.0816872 17.87991964 -7.08274108 14.5201894 -7.08227539 11.16040039 C-7.08587067 10.15411591 -7.08946594 9.14783142 -7.09317017 8.11105347 C-7.0917955 7.20095016 -7.09042084 6.29084686 -7.08900452 5.35316467 C-7.09038721 4.15990366 -7.09038721 4.15990366 -7.09179783 2.94253635 C-6.81316865 -1.15539755 -3.34862632 0.00337369 0 0 Z " fill="#1C232B" transform="translate(129.96875,53.8671875)"/>
<path d="M0 0 C16.335 0.495 16.335 0.495 33 1 C34.4025 4.89296875 35.805 8.7859375 37.25 12.796875 C38.41302525 16.02398513 39.57617957 19.25104869 40.73941612 22.47808266 C41.99335866 25.95685377 43.2470876 29.43570153 44.50030518 32.91473389 C49.6466486 47.20086087 54.79908733 61.48435161 60.0234375 75.7421875 C60.40034729 76.77218872 60.77725708 77.80218994 61.16558838 78.86340332 C62.91318443 83.63863924 64.66534257 88.4121009 66.42578125 93.18261719 C67.04187402 94.86385632 67.65777213 96.54516681 68.2734375 98.2265625 C68.55359711 98.97992889 68.83375671 99.73329529 69.12240601 100.50949097 C70.20513131 103.47910608 71 105.81216768 71 109 C60.77 109 50.54 109 40 109 C39.30849854 106.92025879 38.61699707 104.84051758 37.90454102 102.69775391 C35.62284116 95.83610482 33.33949384 88.9750048 31.05532932 82.1141758 C29.67012377 77.95333447 28.28547848 73.79230842 26.90209961 69.63085938 C25.5677301 65.61690729 24.2319072 61.60344163 22.8950634 57.59031296 C22.38459113 56.05704455 21.87464807 54.52359985 21.36523628 52.98997879 C20.65316406 50.84653229 19.93923441 48.70371312 19.22485352 46.56103516 C18.8184816 45.33969879 18.41210968 44.11836243 17.99342346 42.86001587 C17.10338413 40.09928809 17.10338413 40.09928809 16 38 C15.71407486 38.85999603 15.42814972 39.71999207 15.13356018 40.60604858 C12.44231267 48.69980547 9.74963206 56.79308383 7.05532932 64.8858242 C5.67012377 69.04666553 4.28547848 73.20769158 2.90209961 77.36914062 C1.5677301 81.38309271 0.2319072 85.39655837 -1.1049366 89.40968704 C-1.61540887 90.94295545 -2.12535193 92.47640015 -2.63476372 94.01002121 C-3.34683594 96.15346771 -4.06076559 98.29628688 -4.77514648 100.43896484 C-5.1815184 101.66030121 -5.58789032 102.88163757 -6.00657654 104.13998413 C-7 107 -7 107 -8 109 C-18.23 109 -28.46 109 -39 109 C-36.98388667 102.27962222 -34.89943694 95.66993013 -32.55078125 89.0703125 C-32.22080643 88.13749954 -31.8908316 87.20468658 -31.55085754 86.24360657 C-30.47415735 83.20308696 -29.39359221 80.16396051 -28.3125 77.125 C-27.94227722 76.08207794 -27.57205444 75.03915588 -27.19061279 73.96463013 C-21.55908624 58.10163647 -15.86850891 42.2602793 -10.125 26.4375 C-9.78497955 25.49916321 -9.44495911 24.56082642 -9.09463501 23.59405518 C-8.13054807 20.93553817 -7.16349904 18.2781201 -6.1953125 15.62109375 C-5.91476517 14.84711746 -5.63421783 14.07314117 -5.34516907 13.27571106 C-5.07931503 12.5484935 -4.813461 11.82127594 -4.53955078 11.07202148 C-4.31324982 10.45068832 -4.08694885 9.82935516 -3.85379028 9.18919373 C-2.64692269 6.09467857 -1.30841429 3.05296667 0 0 Z " fill="#1C222A" transform="translate(675,54)"/>
<path d="M0 0 C1.39136534 0.04232649 2.78256436 0.09034885 4.17358398 0.14282227 C5.27016579 0.17823875 5.27016579 0.17823875 6.38890076 0.21437073 C8.7326823 0.29117936 11.07614756 0.37512882 13.41967773 0.45922852 C15.00494852 0.51243203 16.59023491 0.56517253 18.17553711 0.61743164 C22.06961905 0.74681756 25.96343184 0.88260983 29.85717773 1.02172852 C30.40523071 2.56098999 30.40523071 2.56098999 30.96435547 4.13134766 C38.57010854 25.48644092 46.21327818 46.82773316 53.91967773 68.14672852 C54.27407928 69.12811798 54.62848083 70.10950745 54.99362183 71.12063599 C56.02127292 73.96566534 57.05020157 76.81022816 58.07983398 79.65454102 C58.40219528 80.54594284 58.72455658 81.43734467 59.0566864 82.35575867 C60.56977128 86.52665342 62.10205113 90.68825071 63.68481445 94.83325195 C64.10880775 95.94577835 64.10880775 95.94577835 64.54136658 97.08078003 C65.06565573 98.45018479 65.59429196 99.81793676 66.12818909 101.18362427 C67.19630342 103.96958362 67.85717773 106.00544961 67.85717773 109.02172852 C57.62717773 109.02172852 47.39717773 109.02172852 36.85717773 109.02172852 C36.16567627 106.9419873 35.4741748 104.86224609 34.76171875 102.71948242 C32.48001889 95.85783333 30.19667157 88.99673331 27.91250706 82.13590431 C26.5273015 77.97506298 25.14265621 73.81403694 23.75927734 69.65258789 C22.42490783 65.6386358 21.08908494 61.62517015 19.75224113 57.61204147 C19.24176886 56.07877307 18.73182581 54.54532837 18.22241402 53.01170731 C17.51034179 50.8682608 16.79641214 48.72544163 16.08203125 46.58276367 C15.67565933 45.36142731 15.26928741 44.14009094 14.8506012 42.88174438 C13.96056187 40.12101661 13.96056187 40.12101661 12.85717773 38.02172852 C12.57125259 38.88172455 12.28532745 39.74172058 11.99073792 40.6277771 C9.29949041 48.72153399 6.6068098 56.81481234 3.91250706 64.90755272 C2.5273015 69.06839405 1.14265621 73.22942009 -0.24072266 77.39086914 C-1.57509217 81.40482123 -2.91091506 85.41828688 -4.24775887 89.43141556 C-4.75823114 90.96468396 -5.26817419 92.49812866 -5.77758598 94.03174973 C-6.48965821 96.17519623 -7.20358786 98.3180154 -7.91796875 100.46069336 C-8.32434067 101.68202972 -8.73071259 102.90336609 -9.1493988 104.16171265 C-10.14282227 107.02172852 -10.14282227 107.02172852 -11.14282227 109.02172852 C-21.37282227 109.02172852 -31.60282227 109.02172852 -42.14282227 109.02172852 C-38.76817161 96.64800943 -38.76817161 96.64800943 -37.2043457 92.390625 C-36.85206406 91.42445755 -36.49978241 90.4582901 -36.13682556 89.46284485 C-35.57518456 87.94318367 -35.57518456 87.94318367 -35.00219727 86.39282227 C-34.60267349 85.29999435 -34.20314972 84.20716644 -33.79151917 83.08122253 C-32.4958832 79.53910473 -31.19434207 75.99918805 -29.89282227 72.45922852 C-28.08717873 67.52906376 -26.2847391 62.59773055 -24.48266602 57.66625977 C-24.03195236 56.43397644 -23.58123871 55.20169312 -23.11686707 53.93206787 C-20.2185165 45.99840544 -17.3530387 38.0537743 -14.52172852 30.09594727 C-14.17075104 29.10950729 -13.81977356 28.12306732 -13.4581604 27.10673523 C-11.81750671 22.49074886 -10.18190177 17.87301037 -8.55004883 13.25390625 C-7.97293397 11.62702259 -7.39578755 10.00015013 -6.81860352 8.37329102 C-6.55914444 7.63435104 -6.29968536 6.89541107 -6.03236389 6.13407898 C-3.86209574 0.02670135 -3.86209574 0.02670135 0 0 Z " fill="#1C232A" transform="translate(344.142822265625,53.978271484375)"/>
<path d="M0 0 C1.06367294 0.0199855 2.12734589 0.03997101 3.22325134 0.06056213 C4.42442093 0.08065842 5.62559052 0.1007547 6.86315918 0.12145996 C8.17042465 0.14849503 9.47769012 0.17553009 10.8245697 0.2033844 C12.16834739 0.22767602 13.51213323 0.25152005 14.85592651 0.27493286 C18.39881155 0.33786928 21.94155274 0.40690857 25.48429871 0.47718811 C29.0970045 0.54778551 32.70981255 0.61265382 36.32261658 0.67799377 C43.41582829 0.8071292 50.50888825 0.94323645 57.60191345 1.08229065 C57.60191345 9.33229065 57.60191345 17.58229065 57.60191345 26.08229065 C46.71191345 26.08229065 35.82191345 26.08229065 24.60191345 26.08229065 C24.60191345 45.22229065 24.60191345 64.36229065 24.60191345 84.08229065 C35.49191345 84.08229065 46.38191345 84.08229065 57.60191345 84.08229065 C57.60191345 92.33229065 57.60191345 100.58229065 57.60191345 109.08229065 C37.47191345 109.08229065 17.34191345 109.08229065 -3.39808655 109.08229065 C-3.43819536 82.16927959 -3.43819536 82.16927959 -3.44691467 70.74049377 C-3.45290385 62.92709173 -3.46000612 55.11370134 -3.473526 47.30030823 C-3.4843524 41.00447906 -3.49036285 34.70866239 -3.49296379 28.41282463 C-3.49481849 26.00494121 -3.49843995 23.59705851 -3.5038166 21.18918037 C-3.51102374 17.82939779 -3.51207763 14.46966755 -3.51161194 11.10987854 C-3.51520721 10.10359406 -3.51880249 9.09730957 -3.52250671 8.06053162 C-3.52113205 7.15042831 -3.51975739 6.24032501 -3.51834106 5.30264282 C-3.51972375 4.1093818 -3.51972375 4.1093818 -3.52113438 2.8920145 C-3.32890509 0.06480547 -2.83268315 0.09720389 0 0 Z " fill="#1C222A" transform="translate(237.39808654785156,53.91770935058594)"/>
<path d="M0 0 C1.06367294 0.0199855 2.12734589 0.03997101 3.22325134 0.06056213 C4.42442093 0.08065842 5.62559052 0.1007547 6.86315918 0.12145996 C8.17042465 0.14849503 9.47769012 0.17553009 10.8245697 0.2033844 C12.16834739 0.22767602 13.51213323 0.25152005 14.85592651 0.27493286 C18.39881155 0.33786928 21.94155274 0.40690857 25.48429871 0.47718811 C29.0970045 0.54778551 32.70981255 0.61265382 36.32261658 0.67799377 C43.41582829 0.8071292 50.50888825 0.94323645 57.60191345 1.08229065 C57.60191345 9.33229065 57.60191345 17.58229065 57.60191345 26.08229065 C46.71191345 26.08229065 35.82191345 26.08229065 24.60191345 26.08229065 C24.60191345 45.22229065 24.60191345 64.36229065 24.60191345 84.08229065 C35.49191345 84.08229065 46.38191345 84.08229065 57.60191345 84.08229065 C57.60191345 92.33229065 57.60191345 100.58229065 57.60191345 109.08229065 C37.47191345 109.08229065 17.34191345 109.08229065 -3.39808655 109.08229065 C-3.43819536 82.16927959 -3.43819536 82.16927959 -3.44691467 70.74049377 C-3.45290385 62.92709173 -3.46000612 55.11370134 -3.473526 47.30030823 C-3.4843524 41.00447906 -3.49036285 34.70866239 -3.49296379 28.41282463 C-3.49481849 26.00494121 -3.49843995 23.59705851 -3.5038166 21.18918037 C-3.51102374 17.82939779 -3.51207763 14.46966755 -3.51161194 11.10987854 C-3.51520721 10.10359406 -3.51880249 9.09730957 -3.52250671 8.06053162 C-3.52113205 7.15042831 -3.51975739 6.24032501 -3.51834106 5.30264282 C-3.51972375 4.1093818 -3.51972375 4.1093818 -3.52113438 2.8920145 C-3.32890509 0.06480547 -2.83268315 0.09720389 0 0 Z " fill="#1C222A" transform="translate(571.3980865478516,53.91770935058594)"/>
<path d="M0 0 C24.09 0 48.18 0 73 0 C73 7.92 73 15.84 73 24 C72.505 24.495 72.505 24.495 72 25 C64.74 25 57.48 25 50 25 C50 52.39 50 79.78 50 108 C40.76 108 31.52 108 22 108 C22 80.61 22 53.22 22 25 C14.74 25 7.48 25 0 25 C0 16.75 0 8.5 0 0 Z " fill="#1B222A" transform="translate(42,55)"/>
<path d="M0 0 C0 35.64 0 71.28 0 108 C-9.24 108 -18.48 108 -28 108 C-28 72.36 -28 36.72 -28 0 C-2 -1 -2 -1 0 0 Z " fill="#1B222A" transform="translate(448,55)"/>
<path d="M0 0 C4.32664193 3.29201016 6.54224349 6.76922663 8 12 C7.96464175 16.45513897 7.23596176 20.27313512 4.61328125 23.9375 C0.89872595 27.53949302 -2.71414209 28.93676603 -7.86328125 29.1640625 C-12.76450532 28.78773451 -15.39184928 26.59463626 -18.8125 23.25 C-22.04941937 18.44086265 -22.38296778 15.01928464 -21.3125 9.375 C-19.36432885 4.36541704 -17.42073933 1.86358665 -12.8125 -0.9375 C-7.95333712 -2.29169293 -4.63831992 -1.90938358 0 0 Z " fill="#1D232B" transform="translate(698,130)"/>
<path d="M0 0 C4.16089181 2.83697169 6.16574793 5.95531463 7.625 10.75 C7.8203962 15.634905 7.40693979 19.70173337 4.37109375 23.68359375 C0.5992428 27.33292518 -2.87318409 28.80775091 -8.11328125 29.0390625 C-12.98517005 28.66498694 -15.62488623 26.47233094 -19.0625 23.1875 C-21.6350411 19.29193776 -22.55589021 16.51733381 -22.25 11.875 C-20.65517502 6.64751811 -18.40528047 3.4069884 -14.25 -0.125 C-9.23972375 -1.79509208 -4.91956683 -1.70292698 0 0 Z " fill="#1C222A" transform="translate(364.25,130.125)"/>
<path d="M0 0 C3.96401442 2.0743889 6.31030761 4.1662036 8.03125 8.27734375 C9.29917733 13.54411882 9.07889782 17.2512991 7.03125 22.27734375 C3.05426121 26.98693573 0.32586256 29.05164415 -5.78125 29.65234375 C-10.48690676 29.52065559 -13.17203375 28.03182417 -16.96875 25.27734375 C-20.00313782 21.53493211 -20.72176218 18.05244162 -20.96875 13.27734375 C-19.87017121 6.90558678 -17.3245727 3.70742226 -12.15625 -0.03515625 C-8.02273499 -1.33426097 -4.05757956 -1.48938932 0 0 Z " fill="#1E242C" transform="translate(621.96875,94.72265625)"/>
<path d="M0 0 C4.80232849 2.40116424 7.70264475 5.14021004 10 10 C10.81388423 14.64475312 11.11896824 18.97141887 8.7890625 23.1953125 C5.1355905 27.62769731 1.98541512 29.80471327 -3.8125 30.375 C-8.51815676 30.24331184 -11.20328375 28.75448042 -15 26 C-18.16468062 22.20238325 -19.15831132 17.89833846 -19 13 C-17.24730961 7.46518824 -14.93561257 4.09686612 -10.25 0.75 C-6.80650918 -0.39783027 -3.55429402 -0.54892572 0 0 Z " fill="#1C222A" transform="translate(286,94)"/>
<path d="M0 0 C0.66 0.33 1.32 0.66 2 1 C1.01 3.64 0.02 6.28 -1 9 C-1.99 9 -2.98 9 -4 9 C-4.25 6.75 -4.25 6.75 -4 4 C-2 1.6875 -2 1.6875 0 0 Z " fill="#2D3238" transform="translate(334,154)"/>
<path d="M0 0 C1.125 1.625 1.125 1.625 2 4 C1.16933916 7.46108684 0.52986895 9.47013105 -2 12 C-3.12377697 8.69564916 -2.89554742 6.9493138 -1.5625 3.75 C-1.27503906 3.04359375 -0.98757813 2.3371875 -0.69140625 1.609375 C-0.46324219 1.07828125 -0.23507812 0.5471875 0 0 Z " fill="#171C23" transform="translate(309,142)"/>
<path d="M0 0 C0.66 0 1.32 0 2 0 C2.66 1.32 3.32 2.64 4 4 C3.34 4 2.68 4 2 4 C1.67 4.66 1.34 5.32 1 6 C-0.32 5.34 -1.64 4.68 -3 4 C-3 3.34 -3 2.68 -3 2 C-2.34 2 -1.68 2 -1 2 C-0.67 1.34 -0.34 0.68 0 0 Z " fill="#242930" transform="translate(548,81)"/>
<path d="M0 0 C0.66 0 1.32 0 2 0 C1.67 0.66 1.34 1.32 1 2 C0.67 1.34 0.34 0.68 0 0 Z " fill="#FFFFFF" transform="translate(568,164)"/>
<path d="" fill="#FFFFFF" transform="translate(0,0)"/>
<path d="" fill="#FFFFFF" transform="translate(0,0)"/>
<path d="" fill="#FFFFFF" transform="translate(0,0)"/>
<path d="" fill="#FFFFFF" transform="translate(0,0)"/>
<path d="" fill="#FFFFFF" transform="translate(0,0)"/>
<path d="" fill="#FFFFFF" transform="translate(0,0)"/>
<path d="" fill="#FFFFFF" transform="translate(0,0)"/>
<path d="" fill="#FFFFFF" transform="translate(0,0)"/>
<path d="" fill="#FFFFFF" transform="translate(0,0)"/>
<path d="" fill="#FFFFFF" transform="translate(0,0)"/>
<path d="" fill="#FFFFFF" transform="translate(0,0)"/>
<path d="" fill="#FFFFFF" transform="translate(0,0)"/>
<path d="" fill="#FFFFFF" transform="translate(0,0)"/>
<path d="" fill="#FFFFFF" transform="translate(0,0)"/>
<path d="" fill="#FFFFFF" transform="translate(0,0)"/>
<path d="" fill="#FFFFFF" transform="translate(0,0)"/>
<path d="" fill="#FFFFFF" transform="translate(0,0)"/>
<path d="" fill="#FFFFFF" transform="translate(0,0)"/>
<path d="" fill="#FFFFFF" transform="translate(0,0)"/>
<path d="" fill="#FFFFFF" transform="translate(0,0)"/>
<path d="" fill="#FFFFFF" transform="translate(0,0)"/>
<path d="" fill="#FFFFFF" transform="translate(0,0)"/>
<path d="" fill="#FFFFFF" transform="translate(0,0)"/>
<path d="" fill="#FFFFFF" transform="translate(0,0)"/>
<path d="" fill="#FFFFFF" transform="translate(0,0)"/>
<path d="" fill="#FFFFFF" transform="translate(0,0)"/>
<path d="" fill="#FFFFFF" transform="translate(0,0)"/>
<path d="" fill="#FFFFFF" transform="translate(0,0)"/>
<path d="" fill="#FFFFFF" transform="translate(0,0)"/>
<path d="" fill="#FFFFFF" transform="translate(0,0)"/>
<path d="" fill="#FFFFFF" transform="translate(0,0)"/>
<path d="" fill="#FFFFFF" transform="translate(0,0)"/>
<path d="" fill="#FFFFFF" transform="translate(0,0)"/>
<path d="" fill="#FFFFFF" transform="translate(0,0)"/>
<path d="" fill="#FFFFFF" transform="translate(0,0)"/>
<path d="" fill="#FFFFFF" transform="translate(0,0)"/>
<path d="" fill="#FFFFFF" transform="translate(0,0)"/>
<path d="" fill="#FFFFFF" transform="translate(0,0)"/>
<path d="" fill="#FFFFFF" transform="translate(0,0)"/>
<path d="" fill="#FFFFFF" transform="translate(0,0)"/>
<path d="" fill="#FFFFFF" transform="translate(0,0)"/>
<path d="" fill="#FFFFFF" transform="translate(0,0)"/>
<path d="" fill="#FFFFFF" transform="translate(0,0)"/>
<path d="" fill="#FFFFFF" transform="translate(0,0)"/>
<path d="" fill="#FFFFFF" transform="translate(0,0)"/>
<path d="" fill="#FFFFFF" transform="translate(0,0)"/>
<path d="" fill="#FFFFFF" transform="translate(0,0)"/>
<path d="" fill="#FFFFFF" transform="translate(0,0)"/>
<path d="" fill="#FFFFFF" transform="translate(0,0)"/>
<path d="" fill="#FFFFFF" transform="translate(0,0)"/>
<path d="" fill="#FFFFFF" transform="translate(0,0)"/>
<path d="" fill="#FFFFFF" transform="translate(0,0)"/>
<path d="" fill="#FFFFFF" transform="translate(0,0)"/>
<path d="" fill="#FFFFFF" transform="translate(0,0)"/>
<path d="" fill="#FFFFFF" transform="translate(0,0)"/>
<path d="" fill="#FFFFFF" transform="translate(0,0)"/>
<path d="" fill="#FFFFFF" transform="translate(0,0)"/>
<path d="" fill="#FFFFFF" transform="translate(0,0)"/>
<path d="" fill="#FFFFFF" transform="translate(0,0)"/>
<path d="" fill="#FFFFFF" transform="translate(0,0)"/>
<path d="" fill="#FFFFFF" transform="translate(0,0)"/>
</svg>
